# xmcd
#
# Track frame offsets:
#	150
#	3206
#	26823
#	44239
#	63221
#	89332
#	100353
#	110941
#	132183
#	168697
#	188473
#
# Disc length: 2735 seconds
#
# Revision: 0
# Processed by: cddbd v1.5.1PL2 Copyright (c) Steve Scherf et al.
# Submitted via: dBpowerAMP V4.0
#
DISCID=960aad0b
DTITLE=Andy Friedman and The Other Failures - Live at the Bowery Poetry Club
DYEAR=1900
DGENRE=Other
TTITLE0=Introduction by Bob Holman
TTITLE1=The Dust Blows Forward 'N The Dust Blows Back
TTITLE2=Things You Can Do For Free
TTITLE3=So Long Sunshine (Done What I Can Do)
TTITLE4=Drawings
TTITLE5=Intro to Did You Love Van Ronk
TTITLE6=Did You Love Van Ronk
TTITLE7=Middletown
TTITLE8=Little Girl
TTITLE9=Talkin' Take Me Home
TTITLE10=A Picture From Life's Other Side
EXTD=
EXTT0=
EXTT1=
EXTT2=
EXTT3=
EXTT4=
EXTT5=
EXTT6=
EXTT7=
EXTT8=
EXTT9=
EXTT10=
PLAYORDER=
